<svg id="Layer_1" data-name="Layer 1" xmlns="http://www.w3.org/2000/svg" viewBox="0 0 15376.28038 3705.69358"><defs><style>.cls-1{fill:#fff;}</style></defs><path class="cls-1" d="M8194.2681-1603.75745c-6.1996,398.4301-21.41519,530.86445-75.5152,637.37543-42.26628,83.40539-122.85426,129.61659-239.50891,136.94268l-55.22821,3.38133v37.75795H8195.959V297.6616c0,663.29887-2.25365,1120.90151-5.6355,1175.00255-9.58009,151.59519-28.17752,214.71256-78.333,263.74151-36.63077,36.06736-69.87969,50.15612-134.688,56.355-23.66884,2.25434,174.70062,3.94492,441.26023,3.94492,285.71977,0,455.91171-1.69058,414.20953-4.50833-280.08427-16.90652-369.1255-114.40066-394.48527-429.98888-3.38185-46.2112-5.6355-449.71314-5.6355-1111.32142v-1039.187H9120.183v-39.44853H8432.65019V-1625.736l-117.21875-113.27366L8197.65-1852.84679Z" transform="translate(6256.09734 1852.84679)"/><path class="cls-1" d="M-6143.5805-1796.49166c12.39809,2.25416,41.1392,7.32617,63.68121,10.70742,81.71481,12.96167,159.48478,68.18963,196.67914,139.19693,33.24944,63.11762,49.02886,128.4895,58.0457,235.56407,7.88967,95.80357,7.32618,2524.70573-.56358,2643.05131-14.65235,227.11073-56.91862,352.7824-148.77727,445.76821-34.9401,35.50361-54.66437,50.71954-88.47739,66.49888-55.228,26.48694-119.47267,42.26628-191.60713,47.90178-32.12236,2.81775,456.47581,5.07209,1085.96149,5.07209l1144.00728,1.12717,132.43434-592.85507,132.43434-592.29132,9.58042,69.31663c28.74093,204.56872,93.54923,383.77768,209.64081,579.32973,74.38872,125.10825,152.722,219.22124,248.52559,298.6817,339.82081,283.46578,875.75743,370.81609,1338.43216,217.53031,138.06984-45.64744,300.37228-136.37926,410.82837-229.36507,54.1007-45.64745,117.21841-119.47275,177.51837-208.51364l42.82969-63.11772-.56341-332.49472c-.56342-313.33388-1.12717-328.54981-8.45326-259.23318-10.14384,96.93074-20.85143,149.90426-47.33837,229.92849-120.59992,362.36317-481.83558,646.3927-946.20123,744.45061-149.34085,31.55868-339.82082,40.57569-477.89066,23.10542-389.97693-50.71953-648.08294-251.34333-762.4836-593.41848-34.94019-104.82024-46.77461-180.89954-46.77461-311.07988-.56342-166.81078,21.9786-289.10128,73.26155-394.48527,21.41484-43.95686,33.813-61.42713,71.571-99.18473,51.84671-52.41012,98.62132-77.76989,178.08179-99.1849l47.90178-12.39818,783.335-3.38134c863.92267-3.94492,854.906-3.94492,962.544-40.01211,143.70535-47.90178,191.60713-139.197,166.81078-318.406-45.084-323.47788-368.56209-565.80455-847.57957-634.55776-75.51589-10.70743-316.15163-9.01684-393.3581,2.81775-264.86868,40.57569-485.21675,135.81568-668.93438,288.53786-111.58291,92.98582-228.2379,222.60241-302.06287,335.31248-137.50643,210.76781-205.13247,413.64595-219.22123,659.35395-3.38117,58.60938-7.32609,74.95213-37.758,169.06512-68.18946,207.95023-142.57818,394.48527-218.65748,547.20728-154.41277,309.3893-330.80414,483.52616-555.09713,548.89822-95.24,27.6141-147.08668,33.24961-287.41069,33.24961-202.87814-.56342-331.36756-22.542-436.188-73.26155-45.084-21.97861-61.99054-34.37644-99.74848-72.13439-72.13438-73.26155-108.20175-156.10352-130.18018-300.37228-9.58034-62.554-10.14392-148.77744-10.14392-1413.3843,0-1261.78927.56358-1350.26675,10.14392-1398.16853,27.05035-140.324,79.46064-222.03882,169.6287-264.86868a318.23666,318.23666,0,0,1,80.58764-25.92336c20.85143-2.81775,48.46537-7.32617,60.86337-10.14392,12.39818-2.25417-196.67905-4.50842-464.92906-4.50842C-5947.46495-1801.56367-6155.97859-1799.30942-6143.5805-1796.49166ZM-2105.17858-759.559c115.52783,11.271,204.56872,36.63078,300.936,83.969,97.49415,47.90178,160.61186,111.01949,206.2593,205.69589,52.97388,109.32874,49.59237,220.91182-9.01667,321.7873-37.75794,65.37188-120.59992,134.12492-212.45856,176.3912-148.77709,68.75322-290.79186,94.113-568.05872,102.00266-195.552,5.6355-1053.83922,7.88967-1053.83922,2.81775,0-1.69058,12.96159-28.17752,28.17752-59.17279,202.31473-402.93853,548.89821-697.1119,942.81973-800.24155C-2340.17882-760.68613-2220.14265-771.39355-2105.17858-759.559Z" transform="translate(6256.09734 1852.84679)"/><path class="cls-1" d="M630.29512-1796.49166c12.39783,2.25416,41.13945,7.32617,63.68147,10.70742A264.66447,264.66447,0,0,1,842.754-1708.57786c37.7576,40.57561,55.79162,71.00739,74.95247,127.36243,34.37644,104.25682,32.6862,25.92335,34.93985,1410.003,1.69093,837.43573.56342,1299.547-3.38116,1372.8086-9.58008,177.51837-30.99527,280.648-78.33364,377.01534-21.41519,43.95686-34.37644,61.99055-71.57063,98.62132-71.00721,71.571-153.84953,105.384-280.08426,114.96442-32.1221,2.81775,456.47581,4.50833,1085.96131,3.94492l1143.44387-.56341L2881.67891,1202.16l132.43434-592.85508,7.32643,60.3c27.05069,231.05566,142.57852,514.52143,291.91937,716.2724,46.21086,61.42713,164.55644,177.51837,227.67449,222.039,176.955,125.10826,382.65085,203.44155,617.08767,233.31,98.62132,12.96159,284.593,12.96159,383.21427,0,210.20388-27.05035,392.23092-91.29523,556.22464-196.67922,148.77675-95.80357,213.02232-159.48469,318.97007-317.84256l34.93984-51.8467-.5641-331.36756c-.5641-212.45856-2.81775-317.2788-5.6355-291.919-2.81775,21.41485-7.88916,63.68113-11.271,92.98581-37.19487,317.2788-259.79728,606.38008-600.74526,779.39012-222.0383,112.71007-448.586,167.37453-695.98472,167.37453-369.1255,0-660.48078-133.56151-822.78356-377.57876-133.56117-201.18755-184.2807-463.80189-139.76077-730.36116,38.3217-233.31,129.61658-349.96465,311.64363-397.8666,46.21086-12.39818,48.4652-12.39818,829.54589-15.77935,690.91332-3.38133,790.66147-5.07191,845.88968-12.96159,228.23791-34.3766,306.00813-121.72691,285.157-318.96955-11.271-103.69323-37.19488-178.08195-91.859-259.23317-176.39155-264.3051-564.11449-424.35337-994.103-410.26462-390.54069,12.96159-719.09015,161.17545-973.25124,439.5693-235.56433,257.5426-357.29108,535.93645-374.19759,852.08825-2.81775,64.24489-5.07209,73.825-41.70287,183.71729-222.039,667.24379-434.4972,972.68817-750.08542,1078.07182-107.638,36.06736-231.61907,47.90178-392.79434,38.32136-165.68395-9.58043-256.41543-28.17752-342.07481-68.18946-138.63326-65.93547-205.69589-170.7557-237.818-373.63384-9.58008-59.7362-10.14418-144.83252-10.14418-1419.0198v-1355.339l12.96193-59.17279c38.88512-174.70062,122.85426-258.66959,276.70311-276.13968,25.92318-2.81776,48.46519-6.76259,50.15612-8.45326s-216.40349-2.25417-484.08992-2.25417C824.15659-1801.56367,617.89729-1799.30942,630.29512-1796.49166ZM4668.69772-760.12254c114.401,11.271,207.38682,37.19436,308.82589,86.78672,52.41046,25.35977,68.75287,37.758,121.72743,91.29523,40.57536,41.13911,67.626,83.40539,93.54992,145.95952,19.72426,48.46537,25.92387,126.79884,14.08876,183.15387-35.504,167.37454-192.734,289.10128-449.14938,346.01991-113.27418,24.79618-185.40822,32.12244-374.1976,37.19436-205.69589,5.6355-1051.02146,7.32608-1051.02146,2.25416,0-1.69058,18.03333-38.88494,40.57535-82.27839a1661.20549,1661.20549,0,0,1,173.57173-269.377c55.22821-69.88022,174.70062-190.48,242.32666-244.58084C4054.99053-676.15357,4386.35843-787.73648,4668.69772-760.12254Z" transform="translate(6256.09734 1852.84679)"/><path class="cls-1" d="M6894.15764-830.56634c-289.66435,35.50361-547.208,141.45118-747.83108,308.82554l-52.41046,43.39345V-777.029l-201.18722.56358-201.75131.56359,33.24892,10.14383c73.82565,23.1056,111.01915,94.6764,127.36294,243.45384,7.88916,73.26155,7.32643,1784.76414,0,1900.85538-20.85109,306.00779-79.46115,397.303-263.74185,413.64612-27.0507,2.81775,317.27914,4.50833,765.30169,4.50833,504.3776,0,747.83109-1.69058,639.62969-4.50833-544.95295-12.39818-746.14016-74.38872-836.30822-256.41543-36.06668-73.26155-49.59271-153.28577-56.91914-340.38457-7.32643-182.0267-7.32643-1249.39127,0-1325.47057,24.23294-253.03409,159.485-449.71314,389.97659-565.80455,105.94775-52.9737,289.10162-104.82041,371.37915-104.25682,78.333,0,148.214,45.64761,335.87658,218.09406,130.74342,120.03617,216.4028,189.353,296.42806,238.38175,122.29015,74.95213,237.818,113.27366,361.79907,121.16333l50.71953,3.38134-40.57535-11.271c-105.38365-28.17752-170.19194-82.27839-374.761-312.77046-163.99371-185.408-241.19984-252.47051-324.04147-282.90237-32.12209-11.83459-45.084-12.96159-124.54518-12.39817C6993.34306-837.89243,6926.84384-834.51126,6894.15764-830.56634Z" transform="translate(6256.09734 1852.84679)"/></svg>